<svg width="512" height="512" viewBox="0 0 512 512" fill="none" xmlns="http://www.w3.org/2000/svg">
<rect width="512" height="512" fill="url(#paint0_linear_675_2)"/>
<path d="M271.391 122.321V155.377C271.391 166.677 266.362 172.113 255.888 172.113C245.414 172.113 240.384 166.677 240.384 155.377V122.321C240.384 111.436 245.414 106 255.888 106C266.362 106 271.391 111.436 271.391 122.321ZM302.828 165.834L322.113 138.642C328.403 130.274 336.369 128.6 344.322 134.451C352.275 140.302 353.12 147.84 346.844 157.051L327.558 183.828C321.268 193.04 313.731 193.87 305.349 188.019C297.383 182.155 296.551 175.045 302.828 165.847V165.834ZM189.663 139.057L209.364 165.834C215.654 175.045 214.809 182.155 206.427 188.006C198.46 194.285 190.923 193.026 184.633 183.815L164.932 157.038C158.642 147.826 159.487 140.717 167.869 134.866C175.836 128.587 183.373 129.845 189.663 139.057ZM255.888 190.938C291.938 190.938 321.268 220.232 321.268 256.208C321.268 291.768 291.924 320.647 255.888 320.647C219.852 320.647 190.508 291.781 190.508 256.208C190.508 220.219 219.852 190.938 255.888 190.938ZM133.509 200.149L165.361 210.191C175.836 213.538 179.618 219.817 176.265 229.859C173.328 239.9 166.206 242.832 155.303 239.485L124.282 229.444C113.808 226.096 110.026 219.402 112.963 209.361C116.316 199.734 123.035 196.802 133.509 200.149ZM346.83 210.191L378.266 200.149C389.17 196.802 395.875 199.734 398.799 209.361C402.152 219.402 398.383 226.096 387.48 229.029L356.46 239.485C345.985 242.832 339.28 239.9 335.927 229.859C332.99 219.817 336.342 213.538 346.83 210.191ZM255.888 292.196C276.005 292.196 292.353 275.875 292.353 256.208C292.353 236.125 276.005 219.804 255.888 219.804C235.771 219.804 219.838 236.125 219.838 256.208C219.838 275.875 235.771 292.196 255.888 292.196ZM124.282 282.57L155.719 272.528C166.193 269.181 173.328 271.685 176.251 281.74C179.604 291.781 175.836 298.061 165.348 301.408L133.496 311.864C123.022 315.211 116.316 312.279 112.963 302.238C110.026 292.196 113.808 285.917 124.282 282.57ZM356.473 272.528L387.909 282.57C398.383 285.917 402.165 292.196 398.813 302.238C395.875 312.279 389.17 315.211 378.28 311.864L346.844 301.408C335.94 298.061 333.016 291.781 335.94 281.74C339.293 271.698 345.999 269.181 356.473 272.528ZM164.946 354.534L184.647 328.172C190.937 318.96 198.474 317.715 206.44 323.981C214.822 329.845 215.667 336.955 209.377 346.153L189.676 372.515C183.386 381.726 175.849 383.4 167.467 377.536C159.501 371.671 158.669 363.745 164.946 354.534ZM327.558 328.172L346.844 354.534C353.133 363.745 352.289 371.685 344.322 377.549C336.356 383.413 328.39 381.311 322.113 372.943L302.828 346.166C296.538 336.955 297.383 329.845 305.349 323.994C313.731 318.13 321.282 318.96 327.558 328.172ZM271.391 356.208V389.264C271.391 400.564 266.362 406 255.888 406C245.414 406 240.384 400.564 240.384 389.264V356.208C240.384 344.907 245.414 339.472 255.888 339.472C266.362 339.472 271.391 344.907 271.391 356.208Z" fill="url(#paint1_linear_675_2)"/>
<defs>
<linearGradient id="paint0_linear_675_2" x1="898.246" y1="-374.269" x2="200.608" y2="401.216" gradientUnits="userSpaceOnUse">
<stop stop-color="white"/>
<stop offset="1"/>
</linearGradient>
<linearGradient id="paint1_linear_675_2" x1="542.312" y1="106" x2="244.247" y2="393.829" gradientUnits="userSpaceOnUse">
<stop stop-color="white"/>
<stop offset="1" stop-color="#FFCD29"/>
</linearGradient>
</defs>
</svg>
